<?xml version="1.0" encoding="UTF-8" standalone="no"?>
<!DOCTYPE svg PUBLIC "-//W3C//DTD SVG 1.1//EN" "http://www.w3.org/Graphics/SVG/1.1/DTD/svg11.dtd">
<svg width="100px" height="20px" viewBox="0 0 100 20" version="1.1" xmlns="http://www.w3.org/2000/svg" xmlns:xlink="http://www.w3.org/1999/xlink" xml:space="preserve" xmlns:serif="http://www.serif.com/" style="fill-rule:evenodd;clip-rule:evenodd;stroke-linejoin:round;stroke-miterlimit:2;">
    <g>
        <path d="M26.64,15.832C25.787,15.832 24.965,15.717 24.176,15.488C23.387,15.258 22.731,14.941 22.208,14.536L23.008,12.759C24.096,13.517 25.317,13.896 26.672,13.896C27.376,13.896 27.917,13.781 28.296,13.551C28.675,13.322 28.864,13.005 28.864,12.599C28.864,12.237 28.691,11.954 28.344,11.752C27.997,11.549 27.381,11.352 26.496,11.16C25.504,10.957 24.712,10.712 24.12,10.423C23.528,10.135 23.096,9.781 22.824,9.36C22.552,8.938 22.416,8.418 22.416,7.799C22.416,7.117 22.605,6.509 22.984,5.976C23.363,5.442 23.893,5.024 24.576,4.72C25.259,4.415 26.048,4.263 26.944,4.263C27.744,4.263 28.515,4.381 29.256,4.616C29.997,4.85 30.587,5.165 31.024,5.56L30.224,7.336C29.189,6.578 28.101,6.2 26.96,6.2C26.309,6.2 25.797,6.325 25.424,6.575C25.051,6.826 24.864,7.17 24.864,7.608C24.864,7.864 24.936,8.074 25.08,8.24C25.224,8.405 25.464,8.551 25.8,8.679C26.136,8.808 26.613,8.941 27.232,9.08C28.683,9.4 29.725,9.81 30.36,10.312C30.995,10.813 31.312,11.506 31.312,12.392C31.312,13.458 30.901,14.298 30.08,14.912C29.259,15.525 28.112,15.832 26.64,15.832ZM37.104,14.039C37.349,14.039 37.605,14.024 37.872,13.992L37.744,15.751C37.435,15.794 37.125,15.815 36.816,15.815C35.621,15.815 34.749,15.554 34.2,15.032C33.651,14.509 33.376,13.714 33.376,12.648L33.376,9.64L31.888,9.64L31.888,7.831L33.376,7.831L33.376,5.528L35.792,5.528L35.792,7.831L37.76,7.831L37.76,9.64L35.792,9.64L35.792,12.632C35.792,13.57 36.229,14.039 37.104,14.039ZM42.72,15.815C41.888,15.815 41.157,15.648 40.528,15.312C39.899,14.975 39.413,14.501 39.072,13.887C38.731,13.274 38.56,12.552 38.56,11.72C38.56,10.887 38.731,10.165 39.072,9.552C39.413,8.938 39.899,8.466 40.528,8.136C41.157,7.805 41.888,7.64 42.72,7.64C43.552,7.64 44.283,7.805 44.912,8.136C45.541,8.466 46.027,8.938 46.368,9.552C46.709,10.165 46.88,10.887 46.88,11.72C46.88,12.552 46.709,13.274 46.368,13.887C46.027,14.501 45.541,14.975 44.912,15.312C44.283,15.648 43.552,15.815 42.72,15.815ZM42.72,13.975C43.893,13.975 44.48,13.224 44.48,11.72C44.48,10.962 44.328,10.397 44.024,10.024C43.72,9.65 43.285,9.464 42.72,9.464C41.547,9.464 40.96,10.215 40.96,11.72C40.96,13.224 41.547,13.975 42.72,13.975ZM53.568,9.624L52.208,9.768C51.536,9.832 51.061,10.021 50.784,10.336C50.507,10.65 50.368,11.069 50.368,11.592L50.368,15.687L47.952,15.687L47.952,7.831L50.272,7.831L50.272,9.16C50.667,8.253 51.483,7.757 52.72,7.672L53.424,7.624L53.568,9.624ZM60.588,7.848L62.956,7.848L58.22,18.568L55.772,18.568L57.276,15.256L54.044,7.848L56.556,7.848L58.54,12.84L60.588,7.848ZM68.556,7.64C69.239,7.64 69.841,7.805 70.364,8.136C70.887,8.466 71.295,8.938 71.588,9.552C71.881,10.165 72.028,10.877 72.028,11.688C72.028,12.498 71.881,13.215 71.588,13.839C71.295,14.464 70.884,14.949 70.356,15.296C69.828,15.642 69.228,15.815 68.556,15.815C68.012,15.815 67.521,15.701 67.084,15.471C66.647,15.242 66.311,14.925 66.076,14.519L66.076,15.687L63.692,15.687L63.692,4.408L66.108,4.408L66.108,8.888C66.343,8.493 66.676,8.186 67.108,7.967C67.54,7.749 68.023,7.64 68.556,7.64ZM67.852,13.975C68.417,13.975 68.855,13.776 69.164,13.376C69.473,12.975 69.628,12.413 69.628,11.688C69.628,10.973 69.473,10.426 69.164,10.048C68.855,9.669 68.417,9.48 67.852,9.48C67.287,9.48 66.849,9.674 66.54,10.064C66.231,10.453 66.076,11.005 66.076,11.72C66.076,12.445 66.231,13.002 66.54,13.392C66.849,13.781 67.287,13.975 67.852,13.975ZM77.276,15.815C76.444,15.815 75.713,15.648 75.084,15.312C74.455,14.975 73.969,14.501 73.628,13.887C73.287,13.274 73.116,12.552 73.116,11.72C73.116,10.887 73.287,10.165 73.628,9.552C73.969,8.938 74.455,8.466 75.084,8.136C75.713,7.805 76.444,7.64 77.276,7.64C78.108,7.64 78.839,7.805 79.468,8.136C80.097,8.466 80.583,8.938 80.924,9.552C81.265,10.165 81.436,10.887 81.436,11.72C81.436,12.552 81.265,13.274 80.924,13.887C80.583,14.501 80.097,14.975 79.468,15.312C78.839,15.648 78.108,15.815 77.276,15.815ZM77.276,13.975C78.449,13.975 79.036,13.224 79.036,11.72C79.036,10.962 78.884,10.397 78.58,10.024C78.276,9.65 77.841,9.464 77.276,9.464C76.103,9.464 75.516,10.215 75.516,11.72C75.516,13.224 76.103,13.975 77.276,13.975ZM86.284,15.815C85.452,15.815 84.721,15.648 84.092,15.312C83.463,14.975 82.977,14.501 82.636,13.887C82.295,13.274 82.124,12.552 82.124,11.72C82.124,10.887 82.295,10.165 82.636,9.552C82.977,8.938 83.463,8.466 84.092,8.136C84.721,7.805 85.452,7.64 86.284,7.64C87.116,7.64 87.847,7.805 88.476,8.136C89.105,8.466 89.591,8.938 89.932,9.552C90.273,10.165 90.444,10.887 90.444,11.72C90.444,12.552 90.273,13.274 89.932,13.887C89.591,14.501 89.105,14.975 88.476,15.312C87.847,15.648 87.116,15.815 86.284,15.815ZM86.284,13.975C87.457,13.975 88.044,13.224 88.044,11.72C88.044,10.962 87.892,10.397 87.588,10.024C87.284,9.65 86.849,9.464 86.284,9.464C85.111,9.464 84.524,10.215 84.524,11.72C84.524,13.224 85.111,13.975 86.284,13.975ZM100,15.687L97.04,15.687L94.032,12.184L94.032,15.687L91.616,15.687L91.616,4.408L94.032,4.408L94.032,11.192L96.928,7.848L99.808,7.848L96.512,11.592L100,15.687Z" style="fill:rgb(51,51,51);fill-rule:nonzero;"/>
        <g>
            <path id="path-1" d="M0.62,18.429L0.001,1.921C-0.02,1.376 0.398,0.914 0.943,0.88L14.984,0.002C15.539,-0.033 16.016,0.389 16.051,0.943C16.052,0.964 16.053,0.985 16.053,1.006L16.053,18.994C16.053,19.55 15.602,20 15.047,20C15.032,20 15.017,20 15.002,19.999L1.58,19.396C1.057,19.373 0.64,18.952 0.62,18.429Z" style="fill:rgb(255,71,133);fill-rule:nonzero;"/>
            <path d="M11.854,2.458L11.95,0.152L13.878,0L13.961,2.379C13.964,2.462 13.899,2.531 13.816,2.534C13.781,2.535 13.746,2.524 13.718,2.502L12.975,1.916L12.094,2.584C12.028,2.634 11.934,2.621 11.884,2.555C11.863,2.527 11.852,2.493 11.854,2.458ZM9.388,7.538C9.388,7.929 12.023,7.742 12.376,7.467C12.376,4.803 10.947,3.403 8.329,3.403C5.712,3.403 4.245,4.825 4.245,6.957C4.245,10.672 9.258,10.743 9.258,12.769C9.258,13.337 8.979,13.675 8.366,13.675C7.568,13.675 7.253,13.267 7.29,11.881C7.29,11.581 4.245,11.487 4.152,11.881C3.916,15.24 6.009,16.209 8.404,16.209C10.724,16.209 12.544,14.972 12.544,12.733C12.544,8.752 7.457,8.859 7.457,6.886C7.457,6.087 8.051,5.98 8.404,5.98C8.775,5.98 9.443,6.045 9.388,7.538Z" style="fill:white;fill-rule:nonzero;"/>
        </g>
    </g>
</svg>
